<svg width="15" height="15" viewBox="0 0 15 15" fill="none" xmlns="http://www.w3.org/2000/svg">
<path fill-rule="evenodd" clip-rule="evenodd" d="M12.8506 4.86671C12.8506 4.83707 12.7819 4.82778 12.75 4.82778C12.6773 4.82778 12.0821 5.19026 11.906 5.38346C11.7739 5.52845 11.78 5.79736 11.78 6.01056V12.6787C11.7768 13.3679 11.2219 13.9286 10.5315 13.9286H2.32664C1.63581 13.9286 1.07384 13.3679 1.07384 12.6787V4.46495C1.07384 3.77571 1.63581 3.21503 2.32664 3.21503H9.10183C9.31552 3.21503 9.51919 3.24753 9.66452 3.11576C9.85817 2.94005 10.2215 2.31759 10.2215 2.2451C10.2215 2.21331 10.2122 2.14368 10.1825 2.14368H2.32664C1.04377 2.14368 0 3.18504 0 4.46495V12.6787C0 13.9586 1.04377 15 2.32664 15H10.5315C11.8143 15 12.8581 13.9586 12.8581 12.6787C12.8581 11.4281 12.8506 4.86671 12.8506 4.86671" fill="white"/>
<path fill-rule="evenodd" clip-rule="evenodd" d="M14.9965 0.538783C14.9965 0.244517 14.7546 0.00310437 14.4596 0.00310437C12.346 0.00310437 12.8202 0.00310437 12.2053 0.00310437C11.9916 0.00310437 11.7879 -0.0276079 11.6426 0.104169C11.4489 0.279872 11.086 0.901616 11.086 0.974111C11.086 1.00589 11.0949 1.07446 11.125 1.07446H13.1635L9.52392 4.70565L8.56534 5.66166C8.54458 5.68273 8.58825 5.73951 8.6108 5.76201C8.66234 5.81308 9.36141 5.99806 9.62271 5.98556C9.81886 5.97628 9.9377 5.80772 10.0888 5.65701L13.9227 1.83191V3.8657C13.9227 3.89535 13.9921 3.90463 14.024 3.90463C14.097 3.90463 14.7209 3.54215 14.8967 3.34895C15.0288 3.20396 14.9965 3.00112 14.9965 2.78756V0.538783Z" fill="white"/>
</svg>
