<svg width="247" height="40" viewBox="0 0 247 40" fill="none" xmlns="http://www.w3.org/2000/svg">
<rect width="247" height="40" rx="20" fill="#3440B6"/>
<path d="M31.728 14.216L31.616 15.96H27.136V18.632H31.072V20.376H27.136V23.256H31.632V25H25.216V14.216H31.728ZM34.7891 17.24C34.9918 17.6453 35.2105 18.0667 35.4451 18.504C35.6798 18.9413 35.9145 19.3573 36.1491 19.752H36.1971C36.4425 19.368 36.6878 18.9573 36.9331 18.52C37.1785 18.072 37.4078 17.6453 37.6211 17.24H39.4931C39.1625 17.8267 38.7945 18.456 38.3891 19.128C37.9838 19.7893 37.5731 20.4507 37.1571 21.112L39.7651 25H37.6371L36.1651 22.504H36.1331L34.6931 25H32.6771L35.1731 21.128C34.9811 20.8293 34.7731 20.5093 34.5491 20.168C34.3358 19.8267 34.1225 19.4853 33.9091 19.144C33.6958 18.792 33.4878 18.456 33.2851 18.136C33.0931 17.8053 32.9225 17.5067 32.7731 17.24H34.7891ZM42.166 17.24L42.262 18.024H42.294C42.5713 17.7147 42.9127 17.464 43.318 17.272C43.7233 17.08 44.182 16.984 44.694 16.984C45.6967 16.984 46.4593 17.336 46.982 18.04C47.5047 18.744 47.766 19.7307 47.766 21V21.08C47.766 21.688 47.6967 22.248 47.558 22.76C47.43 23.272 47.2273 23.7147 46.95 24.088C46.6727 24.4507 46.326 24.7387 45.91 24.952C45.494 25.1547 45.0087 25.256 44.454 25.256C44.0593 25.256 43.6807 25.192 43.318 25.064C42.966 24.936 42.6727 24.7813 42.438 24.6V28.184H40.662V17.24H42.166ZM42.438 23.096C42.6193 23.2453 42.8487 23.3733 43.126 23.48C43.4033 23.5867 43.686 23.64 43.974 23.64C44.3473 23.64 44.6567 23.576 44.902 23.448C45.158 23.3093 45.3607 23.1227 45.51 22.888C45.6593 22.6533 45.7607 22.3813 45.814 22.072C45.878 21.7627 45.91 21.4373 45.91 21.096C45.91 20.7867 45.8887 20.4827 45.846 20.184C45.8033 19.8853 45.7233 19.624 45.606 19.4C45.4887 19.1653 45.318 18.9787 45.094 18.84C44.87 18.7013 44.5767 18.632 44.214 18.632C43.862 18.632 43.526 18.7173 43.206 18.888C42.8967 19.048 42.6407 19.24 42.438 19.464V23.096ZM51.1583 13.96V25H49.3823V13.96H51.1583ZM52.7806 21.08C52.7806 19.768 53.0793 18.76 53.6766 18.056C54.2846 17.3413 55.2126 16.984 56.4606 16.984C57.698 16.984 58.6153 17.3413 59.2126 18.056C59.8206 18.76 60.1246 19.768 60.1246 21.08V21.16C60.1246 22.472 59.8206 23.4853 59.2126 24.2C58.6153 24.904 57.698 25.256 56.4606 25.256C55.2126 25.256 54.2846 24.904 53.6766 24.2C53.0793 23.4853 52.7806 22.472 52.7806 21.16V21.08ZM56.4606 18.472C55.8313 18.472 55.3673 18.6853 55.0686 19.112C54.7806 19.5387 54.6366 20.2107 54.6366 21.128C54.6366 22.0347 54.7806 22.7013 55.0686 23.128C55.3673 23.5547 55.8313 23.768 56.4606 23.768C57.09 23.768 57.5486 23.5547 57.8366 23.128C58.1246 22.7013 58.2686 22.0347 58.2686 21.128C58.2686 20.2107 58.1246 19.5387 57.8366 19.112C57.5486 18.6853 57.09 18.472 56.4606 18.472ZM63.2136 17.24L63.3416 18.312H63.3576C63.6243 17.96 63.9603 17.6667 64.3656 17.432C64.771 17.1867 65.2616 17.064 65.8376 17.064C65.8376 17.1067 65.8323 17.2133 65.8216 17.384C65.8216 17.5547 65.8163 17.736 65.8056 17.928C65.8056 18.12 65.8003 18.3013 65.7896 18.472C65.7896 18.6427 65.7896 18.744 65.7896 18.776C65.2776 18.7973 64.8296 18.888 64.4456 19.048C64.0616 19.1973 63.731 19.4107 63.4536 19.688V25H61.6776V17.24H63.2136ZM66.6244 21.112C66.6244 20.5147 66.699 19.9653 66.8484 19.464C66.9977 18.952 67.2164 18.5147 67.5044 18.152C67.803 17.7787 68.1764 17.4907 68.6244 17.288C69.0724 17.0853 69.6004 16.984 70.2084 16.984C71.339 16.984 72.1657 17.3147 72.6884 17.976C73.2217 18.6267 73.4884 19.6347 73.4884 21C73.4884 21.1493 73.483 21.2933 73.4724 21.432C73.4724 21.56 73.467 21.704 73.4564 21.864H68.4804C68.5337 22.4507 68.7257 22.9147 69.0564 23.256C69.387 23.5867 69.8937 23.752 70.5764 23.752C70.9924 23.752 71.4137 23.7147 71.8404 23.64C72.267 23.5653 72.635 23.4693 72.9444 23.352L73.0564 24.776C72.683 24.936 72.2777 25.0533 71.8404 25.128C71.4137 25.2133 70.9764 25.256 70.5284 25.256C69.2484 25.256 68.2777 24.9253 67.6164 24.264C66.955 23.6027 66.6244 22.5627 66.6244 21.144V21.112ZM71.6804 20.584C71.6804 20.2853 71.6537 20.0027 71.6004 19.736C71.5577 19.4693 71.4777 19.24 71.3604 19.048C71.2537 18.8453 71.099 18.6907 70.8964 18.584C70.7044 18.4667 70.459 18.408 70.1604 18.408C69.851 18.408 69.5897 18.4667 69.3764 18.584C69.163 18.7013 68.987 18.8613 68.8484 19.064C68.7204 19.2667 68.6244 19.5013 68.5604 19.768C68.507 20.024 68.475 20.296 68.4644 20.584H71.6804ZM83.8778 16.264C83.5258 16.0933 83.1578 15.96 82.7738 15.864C82.3898 15.768 82.0164 15.72 81.6538 15.72C81.4084 15.72 81.1844 15.7413 80.9818 15.784C80.7898 15.816 80.6244 15.8747 80.4858 15.96C80.0591 16.1627 79.8458 16.5147 79.8458 17.016C79.8458 17.24 79.8884 17.4373 79.9738 17.608C80.0591 17.768 80.1764 17.912 80.3258 18.04C80.4751 18.1573 80.6458 18.264 80.8378 18.36C81.0404 18.456 81.2538 18.5467 81.4778 18.632L82.2138 18.904C82.5978 19.0533 82.9391 19.2187 83.2378 19.4C83.5471 19.5707 83.8031 19.7787 84.0058 20.024C84.2191 20.2587 84.3791 20.536 84.4858 20.856C84.6031 21.1653 84.6618 21.528 84.6618 21.944C84.6618 22.5093 84.5658 23 84.3738 23.416C84.1924 23.832 83.9311 24.1787 83.5898 24.456C83.2591 24.7227 82.8591 24.92 82.3898 25.048C81.9204 25.1867 81.3978 25.256 80.8218 25.256C80.3631 25.256 79.8778 25.2027 79.3658 25.096C78.8644 25 78.4058 24.8773 77.9898 24.728L78.1178 22.888C78.5231 23.0693 78.9604 23.2187 79.4298 23.336C79.8991 23.4533 80.3098 23.512 80.6618 23.512C81.3444 23.512 81.8458 23.4107 82.1658 23.208C82.4858 22.9947 82.6458 22.632 82.6458 22.12C82.6458 21.8853 82.6084 21.688 82.5338 21.528C82.4591 21.368 82.3524 21.2293 82.2138 21.112C82.0858 20.9947 81.9204 20.8933 81.7178 20.808C81.5258 20.712 81.3018 20.616 81.0458 20.52L80.3258 20.248C79.9631 20.1093 79.6271 19.9493 79.3178 19.768C79.0191 19.5867 78.7578 19.368 78.5338 19.112C78.3098 18.856 78.1338 18.5573 78.0058 18.216C77.8884 17.8747 77.8298 17.4747 77.8298 17.016C77.8298 16.568 77.9151 16.1573 78.0858 15.784C78.2564 15.4 78.5018 15.0747 78.8218 14.808C79.1418 14.5413 79.5258 14.3333 79.9738 14.184C80.4324 14.0347 80.9498 13.96 81.5258 13.96C82.0058 13.96 82.4644 14.0133 82.9018 14.12C83.3498 14.216 83.7284 14.328 84.0378 14.456L83.8778 16.264ZM88.434 14.92V17.24H90.242L90.178 18.6H88.434V22.296C88.434 22.6373 88.4553 22.9093 88.498 23.112C88.5513 23.3147 88.626 23.4693 88.722 23.576C88.818 23.6827 88.9353 23.752 89.074 23.784C89.2127 23.8053 89.3727 23.816 89.554 23.816C89.7033 23.816 89.8367 23.8053 89.954 23.784C90.0713 23.7627 90.1727 23.7413 90.258 23.72L90.338 25.128C90.178 25.1707 89.9913 25.2027 89.778 25.224C89.5647 25.2453 89.3833 25.256 89.234 25.256C88.722 25.256 88.3007 25.192 87.97 25.064C87.6393 24.9467 87.378 24.7707 87.186 24.536C86.994 24.3013 86.8553 24.0133 86.77 23.672C86.6953 23.32 86.658 22.92 86.658 22.472V18.6H85.506V17.24H86.658V15.176L88.434 14.92ZM91.8533 17.56C92.3013 17.3787 92.7759 17.24 93.2773 17.144C93.7893 17.0373 94.2853 16.984 94.7653 16.984C95.2453 16.984 95.6719 17.032 96.0453 17.128C96.4186 17.224 96.7333 17.384 96.9893 17.608C97.2559 17.832 97.4586 18.1253 97.5973 18.488C97.7359 18.84 97.8053 19.2773 97.8053 19.8V23.56C97.8053 23.7733 97.8373 23.9227 97.9013 24.008C97.9653 24.0933 98.1146 24.136 98.3493 24.136V25.128C98.2426 25.16 98.0986 25.1867 97.9173 25.208C97.7466 25.24 97.5706 25.256 97.3893 25.256C97.0693 25.256 96.7973 25.1867 96.5733 25.048C96.3599 24.9093 96.2106 24.68 96.1253 24.36C95.5493 24.9573 94.7599 25.256 93.7573 25.256C93.4266 25.256 93.1119 25.2027 92.8133 25.096C92.5253 25 92.2693 24.856 92.0453 24.664C91.8213 24.4613 91.6453 24.216 91.5173 23.928C91.3893 23.6293 91.3253 23.288 91.3253 22.904C91.3253 21.9867 91.6773 21.2827 92.3813 20.792C93.0959 20.2907 94.1946 20.04 95.6773 20.04H96.0293V19.688C96.0293 19.2187 95.8959 18.8987 95.6293 18.728C95.3626 18.5467 94.9573 18.456 94.4133 18.456C94.0399 18.456 93.6453 18.504 93.2293 18.6C92.8239 18.696 92.4453 18.8293 92.0933 19L91.8533 17.56ZM95.7093 21.272C95.3893 21.272 95.0746 21.2933 94.7653 21.336C94.4666 21.3787 94.1999 21.4533 93.9653 21.56C93.7306 21.6667 93.5386 21.816 93.3893 22.008C93.2506 22.1893 93.1813 22.4293 93.1813 22.728C93.1813 23.0373 93.2719 23.2987 93.4533 23.512C93.6453 23.7147 93.9439 23.816 94.3493 23.816C94.6799 23.816 94.9946 23.7573 95.2933 23.64C95.5919 23.512 95.8373 23.3467 96.0293 23.144V21.272H95.7093ZM101.293 17.24L101.389 18.04H101.405C101.682 17.7307 102.029 17.48 102.445 17.288C102.861 17.0853 103.303 16.984 103.773 16.984C104.295 16.984 104.727 17.0853 105.069 17.288C105.41 17.4907 105.671 17.752 105.853 18.072C106.194 17.7413 106.583 17.48 107.021 17.288C107.458 17.0853 107.938 16.984 108.461 16.984C110.135 16.984 110.973 17.9493 110.973 19.88V25H109.197V20.248C109.197 19.9387 109.175 19.6933 109.133 19.512C109.09 19.32 109.015 19.16 108.909 19.032C108.813 18.904 108.685 18.808 108.525 18.744C108.365 18.6693 108.162 18.632 107.917 18.632C107.607 18.632 107.309 18.7067 107.021 18.856C106.733 19.0053 106.466 19.224 106.221 19.512V20.424V25H104.445V20.296C104.445 19.7733 104.365 19.368 104.205 19.08C104.055 18.7813 103.735 18.632 103.245 18.632C102.935 18.632 102.621 18.7173 102.301 18.888C101.991 19.0587 101.725 19.2827 101.501 19.56V25H99.7245V17.24H101.293ZM114.275 17.24L114.371 18.024H114.403C114.681 17.7147 115.022 17.464 115.427 17.272C115.833 17.08 116.291 16.984 116.803 16.984C117.806 16.984 118.569 17.336 119.091 18.04C119.614 18.744 119.875 19.7307 119.875 21V21.08C119.875 21.688 119.806 22.248 119.667 22.76C119.539 23.272 119.337 23.7147 119.059 24.088C118.782 24.4507 118.435 24.7387 118.019 24.952C117.603 25.1547 117.118 25.256 116.563 25.256C116.169 25.256 115.79 25.192 115.427 25.064C115.075 24.936 114.782 24.7813 114.547 24.6V28.184H112.771V17.24H114.275ZM114.547 23.096C114.729 23.2453 114.958 23.3733 115.235 23.48C115.513 23.5867 115.795 23.64 116.083 23.64C116.457 23.64 116.766 23.576 117.011 23.448C117.267 23.3093 117.47 23.1227 117.619 22.888C117.769 22.6533 117.87 22.3813 117.923 22.072C117.987 21.7627 118.019 21.4373 118.019 21.096C118.019 20.7867 117.998 20.4827 117.955 20.184C117.913 19.8853 117.833 19.624 117.715 19.4C117.598 19.1653 117.427 18.9787 117.203 18.84C116.979 18.7013 116.686 18.632 116.323 18.632C115.971 18.632 115.635 18.7173 115.315 18.888C115.006 19.048 114.75 19.24 114.547 19.464V23.096ZM126.692 13.96L122.708 25.256H120.82L124.82 13.96H126.692ZM129.167 17.24L129.295 18.312H129.311C129.577 17.96 129.913 17.6667 130.319 17.432C130.724 17.1867 131.215 17.064 131.791 17.064C131.791 17.1067 131.785 17.2133 131.775 17.384C131.775 17.5547 131.769 17.736 131.759 17.928C131.759 18.12 131.753 18.3013 131.743 18.472C131.743 18.6427 131.743 18.744 131.743 18.776C131.231 18.7973 130.783 18.888 130.399 19.048C130.015 19.1973 129.684 19.4107 129.407 19.688V25H127.631V17.24H129.167ZM132.578 21.112C132.578 20.5147 132.652 19.9653 132.802 19.464C132.951 18.952 133.17 18.5147 133.458 18.152C133.756 17.7787 134.13 17.4907 134.578 17.288C135.026 17.0853 135.554 16.984 136.161 16.984C137.292 16.984 138.119 17.3147 138.642 17.976C139.175 18.6267 139.442 19.6347 139.442 21C139.442 21.1493 139.436 21.2933 139.426 21.432C139.426 21.56 139.42 21.704 139.41 21.864H134.434C134.487 22.4507 134.679 22.9147 135.01 23.256C135.34 23.5867 135.847 23.752 136.53 23.752C136.946 23.752 137.367 23.7147 137.794 23.64C138.22 23.5653 138.588 23.4693 138.898 23.352L139.01 24.776C138.636 24.936 138.231 25.0533 137.794 25.128C137.367 25.2133 136.93 25.256 136.482 25.256C135.202 25.256 134.231 24.9253 133.57 24.264C132.908 23.6027 132.578 22.5627 132.578 21.144V21.112ZM137.634 20.584C137.634 20.2853 137.607 20.0027 137.554 19.736C137.511 19.4693 137.431 19.24 137.314 19.048C137.207 18.8453 137.052 18.6907 136.85 18.584C136.658 18.4667 136.412 18.408 136.114 18.408C135.804 18.408 135.543 18.4667 135.33 18.584C135.116 18.7013 134.94 18.8613 134.802 19.064C134.674 19.2667 134.578 19.5013 134.514 19.768C134.46 20.024 134.428 20.296 134.418 20.584H137.634ZM141.15 17.56C141.598 17.3787 142.073 17.24 142.574 17.144C143.086 17.0373 143.582 16.984 144.062 16.984C144.542 16.984 144.969 17.032 145.342 17.128C145.715 17.224 146.03 17.384 146.286 17.608C146.553 17.832 146.755 18.1253 146.894 18.488C147.033 18.84 147.102 19.2773 147.102 19.8V23.56C147.102 23.7733 147.134 23.9227 147.198 24.008C147.262 24.0933 147.411 24.136 147.646 24.136V25.128C147.539 25.16 147.395 25.1867 147.214 25.208C147.043 25.24 146.867 25.256 146.686 25.256C146.366 25.256 146.094 25.1867 145.87 25.048C145.657 24.9093 145.507 24.68 145.422 24.36C144.846 24.9573 144.057 25.256 143.054 25.256C142.723 25.256 142.409 25.2027 142.11 25.096C141.822 25 141.566 24.856 141.342 24.664C141.118 24.4613 140.942 24.216 140.814 23.928C140.686 23.6293 140.622 23.288 140.622 22.904C140.622 21.9867 140.974 21.2827 141.678 20.792C142.393 20.2907 143.491 20.04 144.974 20.04H145.326V19.688C145.326 19.2187 145.193 18.8987 144.926 18.728C144.659 18.5467 144.254 18.456 143.71 18.456C143.337 18.456 142.942 18.504 142.526 18.6C142.121 18.696 141.742 18.8293 141.39 19L141.15 17.56ZM145.006 21.272C144.686 21.272 144.371 21.2933 144.062 21.336C143.763 21.3787 143.497 21.4533 143.262 21.56C143.027 21.6667 142.835 21.816 142.686 22.008C142.547 22.1893 142.478 22.4293 142.478 22.728C142.478 23.0373 142.569 23.2987 142.75 23.512C142.942 23.7147 143.241 23.816 143.646 23.816C143.977 23.816 144.291 23.7573 144.59 23.64C144.889 23.512 145.134 23.3467 145.326 23.144V21.272H145.006ZM148.749 21.128C148.749 20.4027 148.845 19.7787 149.037 19.256C149.229 18.7333 149.496 18.3067 149.837 17.976C150.189 17.6347 150.6 17.384 151.069 17.224C151.539 17.064 152.045 16.984 152.589 16.984C153.016 16.984 153.421 17.032 153.805 17.128C154.189 17.2133 154.52 17.3307 154.797 17.48L154.653 19.048C154.44 18.9093 154.163 18.792 153.821 18.696C153.491 18.6 153.155 18.552 152.813 18.552C151.341 18.552 150.605 19.4107 150.605 21.128V21.176C150.605 22.0507 150.781 22.696 151.133 23.112C151.496 23.5173 152.045 23.72 152.781 23.72C153.091 23.72 153.405 23.688 153.725 23.624C154.056 23.56 154.376 23.464 154.685 23.336L154.813 24.824C154.483 24.9733 154.115 25.08 153.709 25.144C153.304 25.2187 152.915 25.256 152.541 25.256C151.208 25.256 150.243 24.888 149.645 24.152C149.357 23.8107 149.133 23.3947 148.973 22.904C148.824 22.4027 148.749 21.8373 148.749 21.208V21.128ZM158.731 14.92V17.24H160.539L160.475 18.6H158.731V22.296C158.731 22.6373 158.752 22.9093 158.795 23.112C158.848 23.3147 158.923 23.4693 159.019 23.576C159.115 23.6827 159.232 23.752 159.371 23.784C159.51 23.8053 159.67 23.816 159.851 23.816C160 23.816 160.134 23.8053 160.251 23.784C160.368 23.7627 160.47 23.7413 160.555 23.72L160.635 25.128C160.475 25.1707 160.288 25.2027 160.075 25.224C159.862 25.2453 159.68 25.256 159.531 25.256C159.019 25.256 158.598 25.192 158.267 25.064C157.936 24.9467 157.675 24.7707 157.483 24.536C157.291 24.3013 157.152 24.0133 157.067 23.672C156.992 23.32 156.955 22.92 156.955 22.472V18.6H155.803V17.24H156.955V15.176L158.731 14.92ZM171.743 13.96V21.864C171.743 22.3547 171.743 22.872 171.743 23.416C171.754 23.96 171.764 24.488 171.775 25H170.271L170.159 24.312H170.143C169.535 24.9413 168.74 25.256 167.759 25.256C167.3 25.256 166.879 25.1707 166.495 25C166.122 24.8187 165.796 24.5573 165.519 24.216C165.252 23.864 165.044 23.4373 164.895 22.936C164.746 22.4347 164.671 21.8587 164.671 21.208V21.112C164.671 20.504 164.74 19.9493 164.879 19.448C165.028 18.9467 165.247 18.5147 165.535 18.152C165.823 17.7787 166.18 17.4907 166.607 17.288C167.034 17.0853 167.53 16.984 168.095 16.984C168.458 16.984 168.804 17.0373 169.135 17.144C169.466 17.24 169.743 17.3787 169.967 17.56V13.96H171.743ZM169.967 19.144C169.786 18.9733 169.556 18.84 169.279 18.744C169.012 18.6373 168.724 18.584 168.415 18.584C168.063 18.584 167.764 18.6533 167.519 18.792C167.274 18.9307 167.076 19.1173 166.927 19.352C166.788 19.576 166.687 19.8427 166.623 20.152C166.559 20.4613 166.527 20.7867 166.527 21.128C166.527 21.48 166.554 21.8107 166.607 22.12C166.671 22.4187 166.772 22.6853 166.911 22.92C167.06 23.144 167.247 23.3253 167.471 23.464C167.695 23.592 167.978 23.656 168.319 23.656C168.639 23.656 168.943 23.5867 169.231 23.448C169.519 23.3093 169.764 23.1333 169.967 22.92V19.144ZM173.328 21.08C173.328 19.768 173.626 18.76 174.224 18.056C174.832 17.3413 175.76 16.984 177.008 16.984C178.245 16.984 179.162 17.3413 179.76 18.056C180.368 18.76 180.672 19.768 180.672 21.08V21.16C180.672 22.472 180.368 23.4853 179.76 24.2C179.162 24.904 178.245 25.256 177.008 25.256C175.76 25.256 174.832 24.904 174.224 24.2C173.626 23.4853 173.328 22.472 173.328 21.16V21.08ZM177.008 18.472C176.378 18.472 175.914 18.6853 175.616 19.112C175.328 19.5387 175.184 20.2107 175.184 21.128C175.184 22.0347 175.328 22.7013 175.616 23.128C175.914 23.5547 176.378 23.768 177.008 23.768C177.637 23.768 178.096 23.5547 178.384 23.128C178.672 22.7013 178.816 22.0347 178.816 21.128C178.816 20.2107 178.672 19.5387 178.384 19.112C178.096 18.6853 177.637 18.472 177.008 18.472ZM181.953 21.128C181.953 20.4027 182.049 19.7787 182.241 19.256C182.433 18.7333 182.699 18.3067 183.041 17.976C183.393 17.6347 183.803 17.384 184.273 17.224C184.742 17.064 185.249 16.984 185.793 16.984C186.219 16.984 186.625 17.032 187.009 17.128C187.393 17.2133 187.723 17.3307 188.001 17.48L187.857 19.048C187.643 18.9093 187.366 18.792 187.025 18.696C186.694 18.6 186.358 18.552 186.016 18.552C184.545 18.552 183.809 19.4107 183.809 21.128V21.176C183.809 22.0507 183.985 22.696 184.337 23.112C184.699 23.5173 185.249 23.72 185.985 23.72C186.294 23.72 186.609 23.688 186.929 23.624C187.259 23.56 187.579 23.464 187.889 23.336L188.017 24.824C187.686 24.9733 187.318 25.08 186.913 25.144C186.507 25.2187 186.118 25.256 185.745 25.256C184.411 25.256 183.446 24.888 182.849 24.152C182.561 23.8107 182.337 23.3947 182.177 22.904C182.027 22.4027 181.953 21.8373 181.953 21.208V21.128ZM194.083 18.84C193.837 18.7227 193.549 18.6267 193.219 18.552C192.899 18.4773 192.595 18.44 192.307 18.44C191.816 18.44 191.464 18.52 191.251 18.68C191.037 18.8293 190.931 19.0373 190.931 19.304C190.931 19.5707 191.032 19.768 191.235 19.896C191.437 20.024 191.731 20.1467 192.115 20.264L192.674 20.424C193.379 20.6267 193.901 20.904 194.243 21.256C194.595 21.608 194.771 22.1307 194.771 22.824C194.771 23.656 194.493 24.2693 193.939 24.664C193.384 25.0587 192.616 25.256 191.635 25.256C191.229 25.256 190.803 25.2133 190.355 25.128C189.917 25.0533 189.539 24.952 189.219 24.824L189.379 23.336C189.688 23.4853 190.04 23.6027 190.435 23.688C190.84 23.7733 191.187 23.816 191.475 23.816C191.965 23.816 192.339 23.7573 192.595 23.64C192.851 23.512 192.979 23.2773 192.979 22.936C192.979 22.7973 192.963 22.68 192.931 22.584C192.899 22.488 192.835 22.4027 192.739 22.328C192.653 22.2533 192.531 22.184 192.371 22.12C192.211 22.056 192.003 21.9867 191.747 21.912L191.187 21.752C190.589 21.5813 190.093 21.3093 189.699 20.936C189.315 20.5627 189.123 20.0293 189.123 19.336C189.123 18.9733 189.197 18.648 189.347 18.36C189.496 18.0613 189.699 17.8107 189.955 17.608C190.221 17.4053 190.536 17.2507 190.899 17.144C191.272 17.0373 191.683 16.984 192.131 16.984C192.493 16.984 192.861 17.016 193.235 17.08C193.608 17.144 193.949 17.2347 194.259 17.352L194.083 18.84Z" fill="white"/>
<path fill-rule="evenodd" clip-rule="evenodd" d="M217.851 16.8667C217.851 16.8371 217.782 16.8278 217.75 16.8278C217.677 16.8278 217.082 17.1903 216.906 17.3835C216.774 17.5285 216.78 17.7974 216.78 18.0106V24.6787C216.777 25.3679 216.222 25.9286 215.531 25.9286H207.327C206.636 25.9286 206.074 25.3679 206.074 24.6787V16.465C206.074 15.7757 206.636 15.215 207.327 15.215H214.102C214.316 15.215 214.519 15.2475 214.665 15.1158C214.858 14.9401 215.221 14.3176 215.221 14.2451C215.221 14.2133 215.212 14.1437 215.182 14.1437H207.327C206.044 14.1437 205 15.185 205 16.465V24.6787C205 25.9586 206.044 27 207.327 27H215.531C216.814 27 217.858 25.9586 217.858 24.6787C217.858 23.4281 217.851 16.8667 217.851 16.8667" fill="white"/>
<path fill-rule="evenodd" clip-rule="evenodd" d="M219.997 12.5388C219.997 12.2445 219.755 12.0031 219.46 12.0031C217.346 12.0031 217.82 12.0031 217.205 12.0031C216.992 12.0031 216.788 11.9724 216.643 12.1042C216.449 12.2799 216.086 12.9016 216.086 12.9741C216.086 13.0059 216.095 13.0745 216.125 13.0745H218.164L214.524 16.7056L213.565 17.6617C213.545 17.6827 213.588 17.7395 213.611 17.762C213.662 17.8131 214.361 17.9981 214.623 17.9856C214.819 17.9763 214.938 17.8077 215.089 17.657L218.923 13.8319V15.8657C218.923 15.8953 218.992 15.9046 219.024 15.9046C219.097 15.9046 219.721 15.5422 219.897 15.349C220.029 15.204 219.997 15.0011 219.997 14.7876V12.5388Z" fill="white"/>
</svg>
