<svg width="214" height="40" viewBox="0 0 214 40" fill="none" xmlns="http://www.w3.org/2000/svg">
<rect width="214" height="40" rx="20" fill="#3440B6"/>
<path d="M27.936 14.216C28.5227 14.216 29.0773 14.2587 29.6 14.344C30.1333 14.4293 30.592 14.6 30.976 14.856C31.3707 15.1013 31.68 15.4427 31.904 15.88C32.1387 16.3173 32.256 16.888 32.256 17.592V17.672C32.256 18.44 32.096 19.1013 31.776 19.656C31.4667 20.2 30.9973 20.5947 30.368 20.84L32.496 25H30.496L28.688 21.176C28.592 21.1867 28.496 21.192 28.4 21.192C28.3147 21.192 28.2133 21.192 28.096 21.192H27.136V25H25.216V14.216H27.936ZM27.136 19.48H27.968C28.352 19.48 28.688 19.464 28.976 19.432C29.264 19.3893 29.4987 19.3093 29.68 19.192C29.8613 19.0747 29.9947 18.8987 30.08 18.664C30.176 18.4293 30.224 18.1093 30.224 17.704V17.672C30.224 17.032 30.048 16.584 29.696 16.328C29.3547 16.072 28.8213 15.944 28.096 15.944H27.136V19.48ZM33.4369 21.112C33.4369 20.5147 33.5115 19.9653 33.6609 19.464C33.8102 18.952 34.0289 18.5147 34.3169 18.152C34.6155 17.7787 34.9889 17.4907 35.4369 17.288C35.8849 17.0853 36.4129 16.984 37.0209 16.984C38.1515 16.984 38.9782 17.3147 39.5009 17.976C40.0342 18.6267 40.3009 19.6347 40.3009 21C40.3009 21.1493 40.2955 21.2933 40.2849 21.432C40.2849 21.56 40.2795 21.704 40.2689 21.864H35.2929C35.3462 22.4507 35.5382 22.9147 35.8689 23.256C36.1995 23.5867 36.7062 23.752 37.3889 23.752C37.8049 23.752 38.2262 23.7147 38.6529 23.64C39.0795 23.5653 39.4475 23.4693 39.7569 23.352L39.8689 24.776C39.4955 24.936 39.0902 25.0533 38.6529 25.128C38.2262 25.2133 37.7889 25.256 37.3409 25.256C36.0609 25.256 35.0902 24.9253 34.4289 24.264C33.7675 23.6027 33.4369 22.5627 33.4369 21.144V21.112ZM38.4929 20.584C38.4929 20.2853 38.4662 20.0027 38.4129 19.736C38.3702 19.4693 38.2902 19.24 38.1729 19.048C38.0662 18.8453 37.9115 18.6907 37.7089 18.584C37.5169 18.4667 37.2715 18.408 36.9729 18.408C36.6635 18.408 36.4022 18.4667 36.1889 18.584C35.9755 18.7013 35.7995 18.8613 35.6609 19.064C35.5329 19.2667 35.4369 19.5013 35.3729 19.768C35.3195 20.024 35.2875 20.296 35.2769 20.584H38.4929ZM42.0095 17.56C42.4575 17.3787 42.9322 17.24 43.4335 17.144C43.9455 17.0373 44.4415 16.984 44.9215 16.984C45.4015 16.984 45.8282 17.032 46.2015 17.128C46.5748 17.224 46.8895 17.384 47.1455 17.608C47.4122 17.832 47.6148 18.1253 47.7535 18.488C47.8922 18.84 47.9615 19.2773 47.9615 19.8V23.56C47.9615 23.7733 47.9935 23.9227 48.0575 24.008C48.1215 24.0933 48.2708 24.136 48.5055 24.136V25.128C48.3988 25.16 48.2548 25.1867 48.0735 25.208C47.9028 25.24 47.7268 25.256 47.5455 25.256C47.2255 25.256 46.9535 25.1867 46.7295 25.048C46.5162 24.9093 46.3668 24.68 46.2815 24.36C45.7055 24.9573 44.9162 25.256 43.9135 25.256C43.5828 25.256 43.2682 25.2027 42.9695 25.096C42.6815 25 42.4255 24.856 42.2015 24.664C41.9775 24.4613 41.8015 24.216 41.6735 23.928C41.5455 23.6293 41.4815 23.288 41.4815 22.904C41.4815 21.9867 41.8335 21.2827 42.5375 20.792C43.2522 20.2907 44.3508 20.04 45.8335 20.04H46.1855V19.688C46.1855 19.2187 46.0522 18.8987 45.7855 18.728C45.5188 18.5467 45.1135 18.456 44.5695 18.456C44.1962 18.456 43.8015 18.504 43.3855 18.6C42.9802 18.696 42.6015 18.8293 42.2495 19L42.0095 17.56ZM45.8655 21.272C45.5455 21.272 45.2308 21.2933 44.9215 21.336C44.6228 21.3787 44.3562 21.4533 44.1215 21.56C43.8868 21.6667 43.6948 21.816 43.5455 22.008C43.4068 22.1893 43.3375 22.4293 43.3375 22.728C43.3375 23.0373 43.4282 23.2987 43.6095 23.512C43.8015 23.7147 44.1002 23.816 44.5055 23.816C44.8362 23.816 45.1508 23.7573 45.4495 23.64C45.7482 23.512 45.9935 23.3467 46.1855 23.144V21.272H45.8655ZM56.6648 13.96V21.864C56.6648 22.3547 56.6648 22.872 56.6648 23.416C56.6754 23.96 56.6861 24.488 56.6968 25H55.1928L55.0808 24.312H55.0648C54.4568 24.9413 53.6621 25.256 52.6808 25.256C52.2221 25.256 51.8008 25.1707 51.4168 25C51.0434 24.8187 50.7181 24.5573 50.4408 24.216C50.1741 23.864 49.9661 23.4373 49.8168 22.936C49.6674 22.4347 49.5928 21.8587 49.5928 21.208V21.112C49.5928 20.504 49.6621 19.9493 49.8008 19.448C49.9501 18.9467 50.1688 18.5147 50.4568 18.152C50.7448 17.7787 51.1021 17.4907 51.5288 17.288C51.9554 17.0853 52.4514 16.984 53.0168 16.984C53.3794 16.984 53.7261 17.0373 54.0568 17.144C54.3874 17.24 54.6648 17.3787 54.8888 17.56V13.96H56.6648ZM54.8888 19.144C54.7074 18.9733 54.4781 18.84 54.2008 18.744C53.9341 18.6373 53.6461 18.584 53.3368 18.584C52.9848 18.584 52.6861 18.6533 52.4408 18.792C52.1954 18.9307 51.9981 19.1173 51.8488 19.352C51.7101 19.576 51.6088 19.8427 51.5448 20.152C51.4808 20.4613 51.4488 20.7867 51.4488 21.128C51.4488 21.48 51.4754 21.8107 51.5288 22.12C51.5928 22.4187 51.6941 22.6853 51.8328 22.92C51.9821 23.144 52.1688 23.3253 52.3928 23.464C52.6168 23.592 52.8994 23.656 53.2408 23.656C53.5608 23.656 53.8648 23.5867 54.1528 23.448C54.4408 23.3093 54.6861 23.1333 54.8888 22.92V19.144ZM68.2741 13.96V21.864C68.2741 22.3547 68.2741 22.872 68.2741 23.416C68.2848 23.96 68.2955 24.488 68.3061 25H66.8021L66.6901 24.312H66.6741C66.0661 24.9413 65.2715 25.256 64.2901 25.256C63.8315 25.256 63.4101 25.1707 63.0261 25C62.6528 24.8187 62.3275 24.5573 62.0501 24.216C61.7835 23.864 61.5755 23.4373 61.4261 22.936C61.2768 22.4347 61.2021 21.8587 61.2021 21.208V21.112C61.2021 20.504 61.2715 19.9493 61.4101 19.448C61.5595 18.9467 61.7781 18.5147 62.0661 18.152C62.3541 17.7787 62.7115 17.4907 63.1381 17.288C63.5648 17.0853 64.0608 16.984 64.6261 16.984C64.9888 16.984 65.3355 17.0373 65.6661 17.144C65.9968 17.24 66.2741 17.3787 66.4981 17.56V13.96H68.2741ZM66.4981 19.144C66.3168 18.9733 66.0875 18.84 65.8101 18.744C65.5435 18.6373 65.2555 18.584 64.9461 18.584C64.5941 18.584 64.2955 18.6533 64.0501 18.792C63.8048 18.9307 63.6075 19.1173 63.4581 19.352C63.3195 19.576 63.2181 19.8427 63.1541 20.152C63.0901 20.4613 63.0581 20.7867 63.0581 21.128C63.0581 21.48 63.0848 21.8107 63.1381 22.12C63.2021 22.4187 63.3035 22.6853 63.4421 22.92C63.5915 23.144 63.7781 23.3253 64.0021 23.464C64.2261 23.592 64.5088 23.656 64.8501 23.656C65.1701 23.656 65.4741 23.5867 65.7621 23.448C66.0501 23.3093 66.2955 23.1333 66.4981 22.92V19.144ZM69.8588 21.08C69.8588 19.768 70.1574 18.76 70.7548 18.056C71.3628 17.3413 72.2908 16.984 73.5388 16.984C74.7761 16.984 75.6934 17.3413 76.2908 18.056C76.8988 18.76 77.2028 19.768 77.2028 21.08V21.16C77.2028 22.472 76.8988 23.4853 76.2908 24.2C75.6934 24.904 74.7761 25.256 73.5388 25.256C72.2908 25.256 71.3628 24.904 70.7548 24.2C70.1574 23.4853 69.8588 22.472 69.8588 21.16V21.08ZM73.5388 18.472C72.9094 18.472 72.4454 18.6853 72.1468 19.112C71.8588 19.5387 71.7148 20.2107 71.7148 21.128C71.7148 22.0347 71.8588 22.7013 72.1468 23.128C72.4454 23.5547 72.9094 23.768 73.5388 23.768C74.1681 23.768 74.6268 23.5547 74.9148 23.128C75.2028 22.7013 75.3468 22.0347 75.3468 21.128C75.3468 20.2107 75.2028 19.5387 74.9148 19.112C74.6268 18.6853 74.1681 18.472 73.5388 18.472ZM78.4838 21.128C78.4838 20.4027 78.5798 19.7787 78.7718 19.256C78.9638 18.7333 79.2304 18.3067 79.5718 17.976C79.9238 17.6347 80.3344 17.384 80.8038 17.224C81.2731 17.064 81.7798 16.984 82.3238 16.984C82.7504 16.984 83.1558 17.032 83.5398 17.128C83.9238 17.2133 84.2544 17.3307 84.5318 17.48L84.3878 19.048C84.1744 18.9093 83.8971 18.792 83.5558 18.696C83.2251 18.6 82.8891 18.552 82.5477 18.552C81.0758 18.552 80.3398 19.4107 80.3398 21.128V21.176C80.3398 22.0507 80.5158 22.696 80.8678 23.112C81.2304 23.5173 81.7798 23.72 82.5158 23.72C82.8251 23.72 83.1398 23.688 83.4598 23.624C83.7904 23.56 84.1104 23.464 84.4198 23.336L84.5478 24.824C84.2171 24.9733 83.8491 25.08 83.4438 25.144C83.0384 25.2187 82.6491 25.256 82.2758 25.256C80.9424 25.256 79.9771 24.888 79.3798 24.152C79.0918 23.8107 78.8678 23.3947 78.7078 22.904C78.5584 22.4027 78.4838 21.8373 78.4838 21.208V21.128ZM87.7498 17.24V21.432C87.7498 21.88 87.7658 22.2533 87.7978 22.552C87.8298 22.8507 87.8991 23.0907 88.0058 23.272C88.1124 23.4533 88.2671 23.5813 88.4698 23.656C88.6724 23.7307 88.9444 23.768 89.2858 23.768C89.6271 23.768 89.8991 23.7307 90.1018 23.656C90.3044 23.5813 90.4591 23.4533 90.5658 23.272C90.6724 23.0907 90.7418 22.8507 90.7738 22.552C90.8058 22.2533 90.8218 21.88 90.8218 21.432V17.24H92.5978V21.272C92.5978 21.976 92.5551 22.5787 92.4698 23.08C92.3951 23.5813 92.2351 23.992 91.9898 24.312C91.7551 24.632 91.4191 24.8667 90.9818 25.016C90.5551 25.176 89.9898 25.256 89.2858 25.256C88.5924 25.256 88.0271 25.176 87.5898 25.016C87.1631 24.8667 86.8271 24.632 86.5818 24.312C86.3471 23.992 86.1871 23.5813 86.1018 23.08C86.0164 22.5787 85.9738 21.976 85.9738 21.272V17.24H87.7498ZM95.9644 17.24L96.0604 18.04H96.0764C96.3537 17.7307 96.7004 17.48 97.1164 17.288C97.5324 17.0853 97.975 16.984 98.4444 16.984C98.967 16.984 99.399 17.0853 99.7404 17.288C100.082 17.4907 100.343 17.752 100.524 18.072C100.866 17.7413 101.255 17.48 101.692 17.288C102.13 17.0853 102.61 16.984 103.132 16.984C104.807 16.984 105.644 17.9493 105.644 19.88V25H103.868V20.248C103.868 19.9387 103.847 19.6933 103.804 19.512C103.762 19.32 103.687 19.16 103.58 19.032C103.484 18.904 103.356 18.808 103.196 18.744C103.036 18.6693 102.834 18.632 102.588 18.632C102.279 18.632 101.98 18.7067 101.692 18.856C101.404 19.0053 101.138 19.224 100.892 19.512V20.424V25H99.1164V20.296C99.1164 19.7733 99.0364 19.368 98.8764 19.08C98.727 18.7813 98.407 18.632 97.9164 18.632C97.607 18.632 97.2924 18.7173 96.9724 18.888C96.663 19.0587 96.3964 19.2827 96.1724 19.56V25H94.3964V17.24H95.9644ZM107.171 21.112C107.171 20.5147 107.246 19.9653 107.395 19.464C107.545 18.952 107.763 18.5147 108.051 18.152C108.35 17.7787 108.723 17.4907 109.171 17.288C109.619 17.0853 110.147 16.984 110.755 16.984C111.886 16.984 112.713 17.3147 113.235 17.976C113.769 18.6267 114.035 19.6347 114.035 21C114.035 21.1493 114.03 21.2933 114.019 21.432C114.019 21.56 114.014 21.704 114.003 21.864H109.027C109.081 22.4507 109.273 22.9147 109.603 23.256C109.934 23.5867 110.441 23.752 111.123 23.752C111.539 23.752 111.961 23.7147 112.387 23.64C112.814 23.5653 113.182 23.4693 113.491 23.352L113.603 24.776C113.23 24.936 112.825 25.0533 112.387 25.128C111.961 25.2133 111.523 25.256 111.075 25.256C109.795 25.256 108.825 24.9253 108.163 24.264C107.502 23.6027 107.171 22.5627 107.171 21.144V21.112ZM112.227 20.584C112.227 20.2853 112.201 20.0027 112.147 19.736C112.105 19.4693 112.025 19.24 111.907 19.048C111.801 18.8453 111.646 18.6907 111.443 18.584C111.251 18.4667 111.006 18.408 110.707 18.408C110.398 18.408 110.137 18.4667 109.923 18.584C109.71 18.7013 109.534 18.8613 109.395 19.064C109.267 19.2667 109.171 19.5013 109.107 19.768C109.054 20.024 109.022 20.296 109.011 20.584H112.227ZM117.136 17.24L117.232 18.088H117.248C117.579 17.7467 117.957 17.48 118.384 17.288C118.811 17.0853 119.291 16.984 119.824 16.984C120.731 16.984 121.387 17.2293 121.792 17.72C122.208 18.2107 122.416 18.952 122.416 19.944V25H120.64V20.232C120.64 19.6347 120.539 19.2187 120.336 18.984C120.133 18.7387 119.792 18.616 119.312 18.616C118.949 18.616 118.597 18.7013 118.256 18.872C117.915 19.0427 117.616 19.2667 117.36 19.544V25H115.584V17.24H117.136ZM126.481 14.92V17.24H128.289L128.225 18.6H126.481V22.296C126.481 22.6373 126.502 22.9093 126.545 23.112C126.598 23.3147 126.673 23.4693 126.769 23.576C126.865 23.6827 126.982 23.752 127.121 23.784C127.26 23.8053 127.42 23.816 127.601 23.816C127.75 23.816 127.884 23.8053 128.001 23.784C128.118 23.7627 128.22 23.7413 128.305 23.72L128.385 25.128C128.225 25.1707 128.038 25.2027 127.825 25.224C127.612 25.2453 127.43 25.256 127.281 25.256C126.769 25.256 126.348 25.192 126.017 25.064C125.686 24.9467 125.425 24.7707 125.233 24.536C125.041 24.3013 124.902 24.0133 124.817 23.672C124.742 23.32 124.705 22.92 124.705 22.472V18.6H123.553V17.24H124.705V15.176L126.481 14.92ZM129.9 17.56C130.348 17.3787 130.823 17.24 131.324 17.144C131.836 17.0373 132.332 16.984 132.812 16.984C133.292 16.984 133.719 17.032 134.092 17.128C134.465 17.224 134.78 17.384 135.036 17.608C135.303 17.832 135.505 18.1253 135.644 18.488C135.783 18.84 135.852 19.2773 135.852 19.8V23.56C135.852 23.7733 135.884 23.9227 135.948 24.008C136.012 24.0933 136.161 24.136 136.396 24.136V25.128C136.289 25.16 136.145 25.1867 135.964 25.208C135.793 25.24 135.617 25.256 135.436 25.256C135.116 25.256 134.844 25.1867 134.62 25.048C134.407 24.9093 134.257 24.68 134.172 24.36C133.596 24.9573 132.807 25.256 131.804 25.256C131.473 25.256 131.159 25.2027 130.86 25.096C130.572 25 130.316 24.856 130.092 24.664C129.868 24.4613 129.692 24.216 129.564 23.928C129.436 23.6293 129.372 23.288 129.372 22.904C129.372 21.9867 129.724 21.2827 130.428 20.792C131.143 20.2907 132.241 20.04 133.724 20.04H134.076V19.688C134.076 19.2187 133.943 18.8987 133.676 18.728C133.409 18.5467 133.004 18.456 132.46 18.456C132.087 18.456 131.692 18.504 131.276 18.6C130.871 18.696 130.492 18.8293 130.14 19L129.9 17.56ZM133.756 21.272C133.436 21.272 133.121 21.2933 132.812 21.336C132.513 21.3787 132.247 21.4533 132.012 21.56C131.777 21.6667 131.585 21.816 131.436 22.008C131.297 22.1893 131.228 22.4293 131.228 22.728C131.228 23.0373 131.319 23.2987 131.5 23.512C131.692 23.7147 131.991 23.816 132.396 23.816C132.727 23.816 133.041 23.7573 133.34 23.64C133.639 23.512 133.884 23.3467 134.076 23.144V21.272H133.756ZM139.887 14.92V17.24H141.695L141.631 18.6H139.887V22.296C139.887 22.6373 139.908 22.9093 139.951 23.112C140.004 23.3147 140.079 23.4693 140.175 23.576C140.271 23.6827 140.388 23.752 140.527 23.784C140.666 23.8053 140.826 23.816 141.007 23.816C141.156 23.816 141.29 23.8053 141.407 23.784C141.524 23.7627 141.626 23.7413 141.711 23.72L141.791 25.128C141.631 25.1707 141.444 25.2027 141.231 25.224C141.018 25.2453 140.836 25.256 140.687 25.256C140.175 25.256 139.754 25.192 139.423 25.064C139.092 24.9467 138.831 24.7707 138.639 24.536C138.447 24.3013 138.308 24.0133 138.223 23.672C138.148 23.32 138.111 22.92 138.111 22.472V18.6H136.959V17.24H138.111V15.176L139.887 14.92ZM145.034 17.24V25H143.258V17.24H145.034ZM143.146 14.952C143.146 14.6213 143.216 14.36 143.354 14.168C143.504 13.9653 143.77 13.864 144.154 13.864C144.528 13.864 144.789 13.9653 144.938 14.168C145.088 14.36 145.162 14.6213 145.162 14.952V15.08C145.162 15.4107 145.088 15.6773 144.938 15.88C144.789 16.072 144.528 16.168 144.154 16.168C143.77 16.168 143.504 16.072 143.354 15.88C143.216 15.6773 143.146 15.4107 143.146 15.08V14.952ZM146.703 21.08C146.703 19.768 147.001 18.76 147.599 18.056C148.207 17.3413 149.135 16.984 150.383 16.984C151.62 16.984 152.537 17.3413 153.135 18.056C153.743 18.76 154.047 19.768 154.047 21.08V21.16C154.047 22.472 153.743 23.4853 153.135 24.2C152.537 24.904 151.62 25.256 150.383 25.256C149.135 25.256 148.207 24.904 147.599 24.2C147.001 23.4853 146.703 22.472 146.703 21.16V21.08ZM150.383 18.472C149.753 18.472 149.289 18.6853 148.991 19.112C148.703 19.5387 148.559 20.2107 148.559 21.128C148.559 22.0347 148.703 22.7013 148.991 23.128C149.289 23.5547 149.753 23.768 150.383 23.768C151.012 23.768 151.471 23.5547 151.759 23.128C152.047 22.7013 152.191 22.0347 152.191 21.128C152.191 20.2107 152.047 19.5387 151.759 19.112C151.471 18.6853 151.012 18.472 150.383 18.472ZM157.152 17.24L157.248 18.088H157.264C157.594 17.7467 157.973 17.48 158.4 17.288C158.826 17.0853 159.306 16.984 159.84 16.984C160.746 16.984 161.402 17.2293 161.808 17.72C162.224 18.2107 162.432 18.952 162.432 19.944V25H160.656V20.232C160.656 19.6347 160.554 19.2187 160.352 18.984C160.149 18.7387 159.808 18.616 159.328 18.616C158.965 18.616 158.613 18.7013 158.272 18.872C157.93 19.0427 157.632 19.2667 157.376 19.544V25H155.6V17.24H157.152Z" fill="white"/>
<path fill-rule="evenodd" clip-rule="evenodd" d="M184.851 16.8667C184.851 16.8371 184.782 16.8278 184.75 16.8278C184.677 16.8278 184.082 17.1903 183.906 17.3835C183.774 17.5285 183.78 17.7974 183.78 18.0106V24.6787C183.777 25.368 183.222 25.9286 182.531 25.9286H174.327C173.636 25.9286 173.074 25.368 173.074 24.6787V16.465C173.074 15.7757 173.636 15.2151 174.327 15.2151H181.102C181.316 15.2151 181.519 15.2476 181.665 15.1158C181.858 14.9401 182.221 14.3176 182.221 14.2451C182.221 14.2133 182.212 14.1437 182.182 14.1437H174.327C173.044 14.1437 172 15.1851 172 16.465V24.6787C172 25.9586 173.044 27 174.327 27H182.531C183.814 27 184.858 25.9586 184.858 24.6787C184.858 23.4281 184.851 16.8667 184.851 16.8667" fill="white"/>
<path fill-rule="evenodd" clip-rule="evenodd" d="M186.997 12.5388C186.997 12.2445 186.755 12.0031 186.46 12.0031C184.346 12.0031 184.82 12.0031 184.205 12.0031C183.992 12.0031 183.788 11.9724 183.643 12.1042C183.449 12.2799 183.086 12.9016 183.086 12.9741C183.086 13.0059 183.095 13.0745 183.125 13.0745H185.164L181.524 16.7056L180.565 17.6617C180.545 17.6827 180.588 17.7395 180.611 17.762C180.662 17.8131 181.361 17.9981 181.623 17.9856C181.819 17.9763 181.938 17.8077 182.089 17.657L185.923 13.8319V15.8657C185.923 15.8953 185.992 15.9046 186.024 15.9046C186.097 15.9046 186.721 15.5422 186.897 15.349C187.029 15.204 186.997 15.0011 186.997 14.7876V12.5388Z" fill="white"/>
</svg>
