<svg width="179" height="40" viewBox="0 0 179 40" fill="none" xmlns="http://www.w3.org/2000/svg">
<rect width="179" height="40" rx="20" fill="#3440B6"/>
<path d="M30.784 16.264C30.432 16.0933 30.064 15.96 29.68 15.864C29.296 15.768 28.9227 15.72 28.56 15.72C28.3147 15.72 28.0907 15.7413 27.888 15.784C27.696 15.816 27.5307 15.8747 27.392 15.96C26.9653 16.1627 26.752 16.5147 26.752 17.016C26.752 17.24 26.7947 17.4373 26.88 17.608C26.9653 17.768 27.0827 17.912 27.232 18.04C27.3813 18.1573 27.552 18.264 27.744 18.36C27.9467 18.456 28.16 18.5467 28.384 18.632L29.12 18.904C29.504 19.0533 29.8453 19.2187 30.144 19.4C30.4533 19.5707 30.7093 19.7787 30.912 20.024C31.1253 20.2587 31.2853 20.536 31.392 20.856C31.5093 21.1653 31.568 21.528 31.568 21.944C31.568 22.5093 31.472 23 31.28 23.416C31.0987 23.832 30.8373 24.1787 30.496 24.456C30.1653 24.7227 29.7653 24.92 29.296 25.048C28.8267 25.1867 28.304 25.256 27.728 25.256C27.2693 25.256 26.784 25.2027 26.272 25.096C25.7707 25 25.312 24.8773 24.896 24.728L25.024 22.888C25.4293 23.0693 25.8667 23.2187 26.336 23.336C26.8053 23.4533 27.216 23.512 27.568 23.512C28.2507 23.512 28.752 23.4107 29.072 23.208C29.392 22.9947 29.552 22.632 29.552 22.12C29.552 21.8853 29.5147 21.688 29.44 21.528C29.3653 21.368 29.2587 21.2293 29.12 21.112C28.992 20.9947 28.8267 20.8933 28.624 20.808C28.432 20.712 28.208 20.616 27.952 20.52L27.232 20.248C26.8693 20.1093 26.5333 19.9493 26.224 19.768C25.9253 19.5867 25.664 19.368 25.44 19.112C25.216 18.856 25.04 18.5573 24.912 18.216C24.7947 17.8747 24.736 17.4747 24.736 17.016C24.736 16.568 24.8213 16.1573 24.992 15.784C25.1627 15.4 25.408 15.0747 25.728 14.808C26.048 14.5413 26.432 14.3333 26.88 14.184C27.3387 14.0347 27.856 13.96 28.432 13.96C28.912 13.96 29.3707 14.0133 29.808 14.12C30.256 14.216 30.6347 14.328 30.944 14.456L30.784 16.264ZM34.8443 13.96V17.96C35.1536 17.6613 35.5216 17.4267 35.9483 17.256C36.3749 17.0747 36.8283 16.984 37.3083 16.984C37.7136 16.984 38.0816 17.0427 38.4123 17.16C38.7429 17.2773 39.0149 17.4427 39.2283 17.656C39.4736 17.9013 39.6443 18.2107 39.7403 18.584C39.8469 18.9573 39.9003 19.4107 39.9003 19.944V25H38.1243V20.232C38.1243 19.6453 38.0229 19.2293 37.8203 18.984C37.6069 18.7387 37.2656 18.616 36.7963 18.616C36.4549 18.616 36.1029 18.696 35.7403 18.856C35.3883 19.016 35.0896 19.224 34.8443 19.48V25H33.0683V13.96H34.8443ZM41.4369 21.08C41.4369 19.768 41.7355 18.76 42.3329 18.056C42.9409 17.3413 43.8689 16.984 45.1169 16.984C46.3542 16.984 47.2715 17.3413 47.8689 18.056C48.4769 18.76 48.7809 19.768 48.7809 21.08V21.16C48.7809 22.472 48.4769 23.4853 47.8689 24.2C47.2715 24.904 46.3542 25.256 45.1169 25.256C43.8689 25.256 42.9409 24.904 42.3329 24.2C41.7355 23.4853 41.4369 22.472 41.4369 21.16V21.08ZM45.1169 18.472C44.4875 18.472 44.0235 18.6853 43.7249 19.112C43.4369 19.5387 43.2929 20.2107 43.2929 21.128C43.2929 22.0347 43.4369 22.7013 43.7249 23.128C44.0235 23.5547 44.4875 23.768 45.1169 23.768C45.7462 23.768 46.2049 23.5547 46.4929 23.128C46.7809 22.7013 46.9249 22.0347 46.9249 21.128C46.9249 20.2107 46.7809 19.5387 46.4929 19.112C46.2049 18.6853 45.7462 18.472 45.1169 18.472ZM51.3144 17.24C51.3997 17.6133 51.4957 18.0453 51.6024 18.536C51.7197 19.016 51.8424 19.512 51.9704 20.024C52.0984 20.536 52.2264 21.0373 52.3544 21.528C52.4824 22.0187 52.5997 22.4613 52.7064 22.856H52.7704C52.9944 22.0453 53.2237 21.1493 53.4584 20.168C53.7037 19.176 53.933 18.2 54.1464 17.24H55.8584C56.0717 18.2 56.301 19.176 56.5464 20.168C56.7917 21.1493 57.021 22.0453 57.2344 22.856H57.2664C57.3837 22.4507 57.5064 21.9973 57.6344 21.496C57.773 20.9947 57.9064 20.4933 58.0344 19.992C58.1624 19.48 58.2797 18.984 58.3864 18.504C58.5037 18.024 58.605 17.6027 58.6904 17.24H60.5464C60.3757 17.816 60.1837 18.456 59.9704 19.16C59.7677 19.8533 59.5544 20.552 59.3304 21.256C59.1064 21.96 58.8877 22.6373 58.6744 23.288C58.4717 23.9387 58.285 24.5093 58.1144 25H56.4024C56.285 24.6053 56.1677 24.184 56.0504 23.736C55.933 23.288 55.8157 22.84 55.6984 22.392C55.581 21.944 55.4637 21.5013 55.3464 21.064C55.229 20.6267 55.1224 20.216 55.0264 19.832H54.9784C54.8717 20.216 54.7597 20.6267 54.6424 21.064C54.525 21.5013 54.4077 21.944 54.2904 22.392C54.173 22.84 54.0504 23.288 53.9224 23.736C53.805 24.184 53.693 24.6053 53.5864 25H51.8904C51.7197 24.5093 51.5277 23.9387 51.3144 23.288C51.101 22.6373 50.8824 21.96 50.6584 21.256C50.4344 20.552 50.2157 19.8533 50.0024 19.16C49.7997 18.456 49.6184 17.816 49.4584 17.24H51.3144ZM64.3744 21.112C64.3744 20.5147 64.449 19.9653 64.5984 19.464C64.7477 18.952 64.9664 18.5147 65.2544 18.152C65.553 17.7787 65.9264 17.4907 66.3744 17.288C66.8224 17.0853 67.3504 16.984 67.9584 16.984C69.089 16.984 69.9157 17.3147 70.4384 17.976C70.9717 18.6267 71.2384 19.6347 71.2384 21C71.2384 21.1493 71.233 21.2933 71.2224 21.432C71.2224 21.56 71.217 21.704 71.2064 21.864H66.2304C66.2837 22.4507 66.4757 22.9147 66.8064 23.256C67.137 23.5867 67.6437 23.752 68.3264 23.752C68.7424 23.752 69.1637 23.7147 69.5904 23.64C70.017 23.5653 70.385 23.4693 70.6944 23.352L70.8064 24.776C70.433 24.936 70.0277 25.0533 69.5904 25.128C69.1637 25.2133 68.7264 25.256 68.2784 25.256C66.9984 25.256 66.0277 24.9253 65.3664 24.264C64.705 23.6027 64.3744 22.5627 64.3744 21.144V21.112ZM69.4304 20.584C69.4304 20.2853 69.4037 20.0027 69.3504 19.736C69.3077 19.4693 69.2277 19.24 69.1104 19.048C69.0037 18.8453 68.849 18.6907 68.6464 18.584C68.4544 18.4667 68.209 18.408 67.9104 18.408C67.601 18.408 67.3397 18.4667 67.1264 18.584C66.913 18.7013 66.737 18.8613 66.5984 19.064C66.4704 19.2667 66.3744 19.5013 66.3104 19.768C66.257 20.024 66.225 20.296 66.2144 20.584H69.4304ZM74.1329 17.24C74.3355 17.6453 74.5542 18.0667 74.7889 18.504C75.0235 18.9413 75.2582 19.3573 75.4929 19.752H75.5409C75.7862 19.368 76.0315 18.9573 76.2769 18.52C76.5222 18.072 76.7515 17.6453 76.9649 17.24H78.8369C78.5062 17.8267 78.1382 18.456 77.7329 19.128C77.3275 19.7893 76.9169 20.4507 76.5009 21.112L79.1089 25H76.9809L75.5089 22.504H75.4769L74.0369 25H72.0209L74.5169 21.128C74.3249 20.8293 74.1169 20.5093 73.8929 20.168C73.6795 19.8267 73.4662 19.4853 73.2529 19.144C73.0395 18.792 72.8315 18.456 72.6289 18.136C72.4369 17.8053 72.2662 17.5067 72.1169 17.24H74.1329ZM80.1033 17.56C80.5513 17.3787 81.0259 17.24 81.5273 17.144C82.0393 17.0373 82.5353 16.984 83.0153 16.984C83.4953 16.984 83.9219 17.032 84.2953 17.128C84.6686 17.224 84.9833 17.384 85.2393 17.608C85.5059 17.832 85.7086 18.1253 85.8473 18.488C85.9859 18.84 86.0553 19.2773 86.0553 19.8V23.56C86.0553 23.7733 86.0873 23.9227 86.1513 24.008C86.2153 24.0933 86.3646 24.136 86.5993 24.136V25.128C86.4926 25.16 86.3486 25.1867 86.1673 25.208C85.9966 25.24 85.8206 25.256 85.6393 25.256C85.3193 25.256 85.0473 25.1867 84.8233 25.048C84.6099 24.9093 84.4606 24.68 84.3753 24.36C83.7993 24.9573 83.0099 25.256 82.0073 25.256C81.6766 25.256 81.3619 25.2027 81.0633 25.096C80.7753 25 80.5193 24.856 80.2953 24.664C80.0713 24.4613 79.8953 24.216 79.7673 23.928C79.6393 23.6293 79.5753 23.288 79.5753 22.904C79.5753 21.9867 79.9273 21.2827 80.6313 20.792C81.3459 20.2907 82.4446 20.04 83.9273 20.04H84.2793V19.688C84.2793 19.2187 84.1459 18.8987 83.8793 18.728C83.6126 18.5467 83.2073 18.456 82.6633 18.456C82.2899 18.456 81.8953 18.504 81.4793 18.6C81.0739 18.696 80.6953 18.8293 80.3433 19L80.1033 17.56ZM83.9593 21.272C83.6393 21.272 83.3246 21.2933 83.0153 21.336C82.7166 21.3787 82.4499 21.4533 82.2153 21.56C81.9806 21.6667 81.7886 21.816 81.6393 22.008C81.5006 22.1893 81.4313 22.4293 81.4313 22.728C81.4313 23.0373 81.5219 23.2987 81.7033 23.512C81.8953 23.7147 82.1939 23.816 82.5993 23.816C82.9299 23.816 83.2446 23.7573 83.5433 23.64C83.8419 23.512 84.0873 23.3467 84.2793 23.144V21.272H83.9593ZM89.5425 17.24L89.6385 18.04H89.6545C89.9318 17.7307 90.2785 17.48 90.6945 17.288C91.1105 17.0853 91.5532 16.984 92.0225 16.984C92.5452 16.984 92.9772 17.0853 93.3185 17.288C93.6598 17.4907 93.9212 17.752 94.1025 18.072C94.4438 17.7413 94.8332 17.48 95.2705 17.288C95.7078 17.0853 96.1878 16.984 96.7105 16.984C98.3852 16.984 99.2225 17.9493 99.2225 19.88V25H97.4465V20.248C97.4465 19.9387 97.4252 19.6933 97.3825 19.512C97.3398 19.32 97.2652 19.16 97.1585 19.032C97.0625 18.904 96.9345 18.808 96.7745 18.744C96.6145 18.6693 96.4118 18.632 96.1665 18.632C95.8572 18.632 95.5585 18.7067 95.2705 18.856C94.9825 19.0053 94.7158 19.224 94.4705 19.512V20.424V25H92.6945V20.296C92.6945 19.7733 92.6145 19.368 92.4545 19.08C92.3052 18.7813 91.9852 18.632 91.4945 18.632C91.1852 18.632 90.8705 18.7173 90.5505 18.888C90.2412 19.0587 89.9745 19.2827 89.7505 19.56V25H87.9745V17.24H89.5425ZM102.525 17.24L102.621 18.024H102.653C102.931 17.7147 103.272 17.464 103.677 17.272C104.083 17.08 104.541 16.984 105.053 16.984C106.056 16.984 106.819 17.336 107.341 18.04C107.864 18.744 108.125 19.7307 108.125 21V21.08C108.125 21.688 108.056 22.248 107.917 22.76C107.789 23.272 107.587 23.7147 107.309 24.088C107.032 24.4507 106.685 24.7387 106.269 24.952C105.853 25.1547 105.368 25.256 104.813 25.256C104.419 25.256 104.04 25.192 103.677 25.064C103.325 24.936 103.032 24.7813 102.797 24.6V28.184H101.021V17.24H102.525ZM102.797 23.096C102.979 23.2453 103.208 23.3733 103.485 23.48C103.763 23.5867 104.045 23.64 104.333 23.64C104.707 23.64 105.016 23.576 105.261 23.448C105.517 23.3093 105.72 23.1227 105.869 22.888C106.019 22.6533 106.12 22.3813 106.173 22.072C106.237 21.7627 106.269 21.4373 106.269 21.096C106.269 20.7867 106.248 20.4827 106.205 20.184C106.163 19.8853 106.083 19.624 105.965 19.4C105.848 19.1653 105.677 18.9787 105.453 18.84C105.229 18.7013 104.936 18.632 104.573 18.632C104.221 18.632 103.885 18.7173 103.565 18.888C103.256 19.048 103 19.24 102.797 19.464V23.096ZM111.518 13.96V25H109.742V13.96H111.518ZM113.14 21.112C113.14 20.5147 113.215 19.9653 113.364 19.464C113.513 18.952 113.732 18.5147 114.02 18.152C114.319 17.7787 114.692 17.4907 115.14 17.288C115.588 17.0853 116.116 16.984 116.724 16.984C117.855 16.984 118.681 17.3147 119.204 17.976C119.737 18.6267 120.004 19.6347 120.004 21C120.004 21.1493 119.999 21.2933 119.988 21.432C119.988 21.56 119.983 21.704 119.972 21.864H114.996C115.049 22.4507 115.241 22.9147 115.572 23.256C115.903 23.5867 116.409 23.752 117.092 23.752C117.508 23.752 117.929 23.7147 118.356 23.64C118.783 23.5653 119.151 23.4693 119.46 23.352L119.572 24.776C119.199 24.936 118.793 25.0533 118.356 25.128C117.929 25.2133 117.492 25.256 117.044 25.256C115.764 25.256 114.793 24.9253 114.132 24.264C113.471 23.6027 113.14 22.5627 113.14 21.144V21.112ZM118.196 20.584C118.196 20.2853 118.169 20.0027 118.116 19.736C118.073 19.4693 117.993 19.24 117.876 19.048C117.769 18.8453 117.615 18.6907 117.412 18.584C117.22 18.4667 116.975 18.408 116.676 18.408C116.367 18.408 116.105 18.4667 115.892 18.584C115.679 18.7013 115.503 18.8613 115.364 19.064C115.236 19.2667 115.14 19.5013 115.076 19.768C115.023 20.024 114.991 20.296 114.98 20.584H118.196ZM126.161 18.84C125.915 18.7227 125.627 18.6267 125.297 18.552C124.977 18.4773 124.673 18.44 124.385 18.44C123.894 18.44 123.542 18.52 123.329 18.68C123.115 18.8293 123.009 19.0373 123.009 19.304C123.009 19.5707 123.11 19.768 123.313 19.896C123.515 20.024 123.809 20.1467 124.193 20.264L124.753 20.424C125.457 20.6267 125.979 20.904 126.321 21.256C126.673 21.608 126.849 22.1307 126.849 22.824C126.849 23.656 126.571 24.2693 126.017 24.664C125.462 25.0587 124.694 25.256 123.713 25.256C123.307 25.256 122.881 25.2133 122.433 25.128C121.995 25.0533 121.617 24.952 121.297 24.824L121.457 23.336C121.766 23.4853 122.118 23.6027 122.513 23.688C122.918 23.7733 123.265 23.816 123.553 23.816C124.043 23.816 124.417 23.7573 124.673 23.64C124.929 23.512 125.057 23.2773 125.057 22.936C125.057 22.7973 125.041 22.68 125.009 22.584C124.977 22.488 124.913 22.4027 124.817 22.328C124.731 22.2533 124.609 22.184 124.449 22.12C124.289 22.056 124.081 21.9867 123.825 21.912L123.265 21.752C122.667 21.5813 122.171 21.3093 121.777 20.936C121.393 20.5627 121.201 20.0293 121.201 19.336C121.201 18.9733 121.275 18.648 121.425 18.36C121.574 18.0613 121.777 17.8107 122.033 17.608C122.299 17.4053 122.614 17.2507 122.977 17.144C123.35 17.0373 123.761 16.984 124.209 16.984C124.571 16.984 124.939 17.016 125.313 17.08C125.686 17.144 126.027 17.2347 126.337 17.352L126.161 18.84Z" fill="white"/>
<path fill-rule="evenodd" clip-rule="evenodd" d="M148.851 16.8667C148.851 16.8371 148.782 16.8278 148.75 16.8278C148.677 16.8278 148.082 17.1903 147.906 17.3835C147.774 17.5285 147.78 17.7974 147.78 18.0106V24.6787C147.777 25.3679 147.222 25.9286 146.531 25.9286H138.327C137.636 25.9286 137.074 25.3679 137.074 24.6787V16.465C137.074 15.7757 137.636 15.215 138.327 15.215H145.102C145.316 15.215 145.519 15.2475 145.665 15.1158C145.858 14.9401 146.221 14.3176 146.221 14.2451C146.221 14.2133 146.212 14.1437 146.182 14.1437H138.327C137.044 14.1437 136 15.185 136 16.465V24.6787C136 25.9586 137.044 27 138.327 27H146.531C147.814 27 148.858 25.9586 148.858 24.6787C148.858 23.4281 148.851 16.8667 148.851 16.8667" fill="white"/>
<path fill-rule="evenodd" clip-rule="evenodd" d="M150.997 12.5388C150.997 12.2445 150.755 12.0031 150.46 12.0031C148.346 12.0031 148.82 12.0031 148.205 12.0031C147.992 12.0031 147.788 11.9724 147.643 12.1042C147.449 12.2799 147.086 12.9016 147.086 12.9741C147.086 13.0059 147.095 13.0745 147.125 13.0745H149.164L145.524 16.7056L144.565 17.6617C144.545 17.6827 144.588 17.7395 144.611 17.762C144.662 17.8131 145.361 17.9981 145.623 17.9856C145.819 17.9763 145.938 17.8077 146.089 17.657L149.923 13.8319V15.8657C149.923 15.8953 149.992 15.9046 150.024 15.9046C150.097 15.9046 150.721 15.5422 150.897 15.349C151.029 15.204 150.997 15.0011 150.997 14.7876V12.5388Z" fill="white"/>
</svg>
